<?xml version="1.0" encoding="UTF-8" standalone="no"?>
<!DOCTYPE svg PUBLIC "-//W3C//DTD SVG 1.0//EN" "http://www.w3.org/TR/2001/REC-SVG-20010904/DTD/svg10.dtd">

<svg xmlns="http://www.w3.org/2000/svg" xmlns:xlink="http://www.w3.org/1999/xlink" width="27.41cm" height="20.21cm" viewBox="0 0 1036 764">
<title></title>
<desc>Created with Enterprise Architect (Build: 1712) 2</desc>

<g style="fill:#FFFFFF;fill-opacity:1.00;">
	 <rect x="0" y="0" width="1036" height="764" shape-rendering="auto"/>
</g><g style="stroke-width:1;stroke-linecap:square;stroke-linejoin:miter; fill:#000000;fill-opacity:0.00; stroke:#000000; stroke-opacity:1.00;">
  <path d="M 6 6 L 6 758 L 1030 758 L 1030 6 L 6 6" shape-rendering="auto"/>
</g>
<g style="stroke-width:1;stroke-linecap:square;stroke-linejoin:miter; fill:#FFFFFF;fill-opacity:1.00; stroke:#000000; stroke-opacity:1.00;">
  <path d="M 6 26 L 134 26 L 147 12 L 147 6 L 6 6 L 6 26 Z" shape-rendering="auto"/>
</g>
<g style="stroke-width:1;stroke-linecap:square;stroke-linejoin:miter; fill:#000000;fill-opacity:1.00; stroke:#000000; stroke-opacity:0.00;">
	<text x="11.00" y="19.00" textLength="121" style="font-family:Calibri; font-weight:700; font-style:normal; font-size:10px; fill:#000000;fill-opacity:1.00; stroke:#000000; stroke-opacity:0.00; stroke-width:0; white-space: pre;" xml:space="preserve" transform="rotate(-0.00 11.00 19.00)">custom WF-010 VistaProducto</text>
</g>
<g style="stroke-width:1;stroke-linecap:square;stroke-linejoin:miter; fill:#FFFFFF;fill-opacity:1.00; stroke:#000000; stroke-opacity:1.00;">
 <rect x="216" y="40" width="550" height="691" rx="0.00" shape-rendering="auto"  />
</g>
<g style="stroke-width:1;stroke-linecap:square;stroke-linejoin:miter; fill:#595959;fill-opacity:1.00; stroke:#000000; stroke-opacity:0.00;">
	<text x="227.00" y="55.00" textLength="20" style="font-family:Calibri; font-weight:0; font-style:normal; font-size:10px; fill:#595959;fill-opacity:1.00; stroke:#000000; stroke-opacity:0.00; stroke-width:0; white-space: pre;" xml:space="preserve" transform="rotate(-0.00 227.00 55.00)">Tab1</text>
	<text x="353.00" y="55.00" textLength="20" style="font-family:Calibri; font-weight:0; font-style:normal; font-size:10px; fill:#595959;fill-opacity:1.00; stroke:#000000; stroke-opacity:0.00; stroke-width:0; white-space: pre;" xml:space="preserve" transform="rotate(-0.00 353.00 55.00)">Tab2</text>
</g>
<g style="stroke-width:1;stroke-linecap:square;stroke-linejoin:miter; fill:#FFFFFF;fill-opacity:1.00; stroke:#000000; stroke-opacity:1.00;">
 <rect x="726" y="61" width="8" height="8" rx="0.00" shape-rendering="auto"  />
 <rect x="615" y="59" width="99" height="12" rx="0.00" shape-rendering="auto"  />
 <rect x="225" y="59" width="388" height="12" rx="0.00" shape-rendering="auto"  />
<ellipse cx="225.00" cy="65.00" rx="8.00" ry="8.00" shape-rendering="auto"  />
</g>
<g style="stroke-width:1;stroke-linecap:square;stroke-linejoin:miter; fill:#595959;fill-opacity:1.00; stroke:#000000; stroke-opacity:0.00;">
	<text x="242.00" y="69.00" textLength="72" style="font-family:Calibri; font-weight:0; font-style:normal; font-size:10px; fill:#595959;fill-opacity:1.00; stroke:#000000; stroke-opacity:0.00; stroke-width:0; white-space: pre;" xml:space="preserve" transform="rotate(-0.00 242.00 69.00)">www.tabone.com</text>
</g>
<g style="stroke-width:1;stroke-linecap:square;stroke-linejoin:miter; fill:#FFFFFF;fill-opacity:1.00; stroke:#000000; stroke-opacity:1.00;">
 <rect x="602" y="392" width="144" height="124" rx="0.00" shape-rendering="auto"  />
 <rect x="232" y="89" width="518" height="59" rx="0.00" shape-rendering="auto"  />
</g>
<g style="stroke-width:1;stroke-linecap:square;stroke-linejoin:miter; fill:#000000;fill-opacity:1.00; stroke:#000000; stroke-opacity:0.00;">
	<text x="248.00" y="126.00" textLength="91" style="font-family:Arial; font-weight:0; font-style:normal; font-size:23px; fill:#000000;fill-opacity:1.00; stroke:#000000; stroke-opacity:0.00; stroke-width:0; white-space: pre;" xml:space="preserve" transform="rotate(-0.00 248.00 126.00)">BlockFile</text>
</g>
<g style="stroke-width:1;stroke-linecap:square;stroke-linejoin:miter; fill:#FFFFFF;fill-opacity:1.00; stroke:#000000; stroke-opacity:1.00;">
 <rect x="644" y="111" width="90" height="20" rx="0.00" shape-rendering="auto"  />
</g>
<g style="stroke-width:1;stroke-linecap:square;stroke-linejoin:miter; fill:#595959;fill-opacity:1.00; stroke:#000000; stroke-opacity:0.00;">
	<text x="663.00" y="124.00" textLength="52" style="font-family:Calibri; font-weight:0; font-style:normal; font-size:10px; fill:#595959;fill-opacity:1.00; stroke:#000000; stroke-opacity:0.00; stroke-width:0; white-space: pre;" xml:space="preserve" transform="rotate(-0.00 663.00 124.00)">Cerrar Sesión</text>
</g>
<g style="stroke-width:1;stroke-linecap:square;stroke-linejoin:miter; fill:#FFFFFF;fill-opacity:1.00; stroke:#000000; stroke-opacity:1.00;">
 <rect x="551" y="111" width="90" height="20" rx="0.00" shape-rendering="auto"  />
</g>
<g style="stroke-width:1;stroke-linecap:square;stroke-linejoin:miter; fill:#595959;fill-opacity:1.00; stroke:#000000; stroke-opacity:0.00;">
	<text x="586.00" y="124.00" textLength="20" style="font-family:Calibri; font-weight:0; font-style:normal; font-size:10px; fill:#595959;fill-opacity:1.00; stroke:#000000; stroke-opacity:0.00; stroke-width:0; white-space: pre;" xml:space="preserve" transform="rotate(-0.00 586.00 124.00)">Perfil</text>
</g>
<g style="stroke-width:1;stroke-linecap:square;stroke-linejoin:miter; fill:#FFFFFF;fill-opacity:1.00; stroke:#000000; stroke-opacity:1.00;">
 <rect x="350" y="111" width="90" height="20" rx="0.00" shape-rendering="auto"  />
</g>
<g style="stroke-width:1;stroke-linecap:square;stroke-linejoin:miter; fill:#595959;fill-opacity:1.00; stroke:#000000; stroke-opacity:0.00;">
	<text x="384.00" y="124.00" textLength="21" style="font-family:Calibri; font-weight:0; font-style:normal; font-size:10px; fill:#595959;fill-opacity:1.00; stroke:#000000; stroke-opacity:0.00; stroke-width:0; white-space: pre;" xml:space="preserve" transform="rotate(-0.00 384.00 124.00)">Inicio</text>
</g>
<g style="stroke-width:1;stroke-linecap:square;stroke-linejoin:miter; fill:#FFFFFF;fill-opacity:1.00; stroke:#000000; stroke-opacity:1.00;">
 <rect x="458" y="111" width="90" height="20" rx="0.00" shape-rendering="auto"  />
</g>
<g style="stroke-width:1;stroke-linecap:square;stroke-linejoin:miter; fill:#595959;fill-opacity:1.00; stroke:#000000; stroke-opacity:0.00;">
	<text x="487.00" y="124.00" textLength="32" style="font-family:Calibri; font-weight:0; font-style:normal; font-size:10px; fill:#595959;fill-opacity:1.00; stroke:#000000; stroke-opacity:0.00; stroke-width:0; white-space: pre;" xml:space="preserve" transform="rotate(-0.00 487.00 124.00)">Ranking</text>
</g>
<g style="stroke-width:1;stroke-linecap:square;stroke-linejoin:miter; fill:#FFFFFF;fill-opacity:1.00; stroke:#000000; stroke-opacity:1.00;">
 <rect x="232" y="173" width="348" height="343" rx="0.00" shape-rendering="auto"  />
 <rect x="602" y="243" width="145" height="141" rx="0.00" shape-rendering="auto"  />
 <rect x="548" y="189" width="16" height="311" rx="0.00" shape-rendering="auto"  />
 <rect x="548" y="189" width="16" height="16" rx="0.00" shape-rendering="auto"  />
 <rect x="548" y="484" width="16" height="16" rx="0.00" shape-rendering="auto"  />
 <rect x="548" y="336" width="16" height="16" rx="0.00" shape-rendering="auto"  />
</g>
<g style="stroke-width:1;stroke-linecap:square;stroke-linejoin:miter; fill:#808080;fill-opacity:1.00; stroke:#000000; stroke-opacity:0.00;">
  <path d="M 552 201 L 556 193 L 560 201 L 552 201" shape-rendering="auto"/>
</g>
<g style="stroke-width:1;stroke-linecap:round;stroke-linejoin:round; fill:#000000;fill-opacity:0.00; stroke:#000000; stroke-opacity:1.00;">
  <path d="M 552 201 L 556 193 L 560 201 L 552 201" shape-rendering="auto"/>
</g>
<g style="stroke-width:1;stroke-linecap:round;stroke-linejoin:round; fill:#808080;fill-opacity:1.00; stroke:#000000; stroke-opacity:0.00;">
  <path d="M 552 488 L 556 496 L 560 488 L 552 488" shape-rendering="auto"/>
</g>
<g style="stroke-width:1;stroke-linecap:round;stroke-linejoin:round; fill:#000000;fill-opacity:0.00; stroke:#000000; stroke-opacity:1.00;">
  <path d="M 552 488 L 556 496 L 560 488 L 552 488" shape-rendering="auto"/>
</g>
<g style="stroke-width:1;stroke-linecap:round;stroke-linejoin:round; fill:#FFFFFF;fill-opacity:1.00; stroke:#000000; stroke-opacity:1.00;">
 <rect x="248" y="234" width="286" height="115" rx="0.00" shape-rendering="auto"  />
</g>
<g style="stroke-width:1;stroke-linecap:round;stroke-linejoin:round; fill:#000000;fill-opacity:0.00; stroke:#9A8484; stroke-opacity:1.00;">
  <path d="M 277 246 L 505 337 M 505 246 L 277 337" shape-rendering="auto"/>
</g>
<g style="stroke-width:1;stroke-linecap:round;stroke-linejoin:round; fill:#000000;fill-opacity:1.00; stroke:#000000; stroke-opacity:0.00;">
	<text x="248.00" y="215.00" textLength="99" style="font-family:Arial; font-weight:0; font-style:normal; font-size:28px; fill:#000000;fill-opacity:1.00; stroke:#000000; stroke-opacity:0.00; stroke-width:0; white-space: pre;" xml:space="preserve" transform="rotate(-0.00 248.00 215.00)">Nombre</text>
</g>
<g style="stroke-width:1;stroke-linecap:round;stroke-linejoin:round; fill:#FFFFFF;fill-opacity:1.00; stroke:#000000; stroke-opacity:1.00;">
 <rect x="248" y="355" width="90" height="60" rx="0.00" shape-rendering="auto"  />
</g>
<g style="stroke-width:1;stroke-linecap:round;stroke-linejoin:round; fill:#000000;fill-opacity:0.00; stroke:#9A8484; stroke-opacity:1.00;">
  <path d="M 257 361 L 329 409 M 329 361 L 257 409" shape-rendering="auto"/>
</g>
<g style="stroke-width:1;stroke-linecap:round;stroke-linejoin:round; fill:#FFFFFF;fill-opacity:1.00; stroke:#000000; stroke-opacity:1.00;">
 <rect x="346" y="355" width="90" height="60" rx="0.00" shape-rendering="auto"  />
</g>
<g style="stroke-width:1;stroke-linecap:round;stroke-linejoin:round; fill:#000000;fill-opacity:0.00; stroke:#9A8484; stroke-opacity:1.00;">
  <path d="M 355 361 L 427 409 M 427 361 L 355 409" shape-rendering="auto"/>
</g>
<g style="stroke-width:1;stroke-linecap:round;stroke-linejoin:round; fill:#FFFFFF;fill-opacity:1.00; stroke:#000000; stroke-opacity:1.00;">
 <rect x="444" y="355" width="90" height="60" rx="0.00" shape-rendering="auto"  />
</g>
<g style="stroke-width:1;stroke-linecap:round;stroke-linejoin:round; fill:#000000;fill-opacity:0.00; stroke:#9A8484; stroke-opacity:1.00;">
  <path d="M 453 361 L 525 409 M 525 361 L 453 409" shape-rendering="auto"/>
</g>
<g style="stroke-width:1;stroke-linecap:round;stroke-linejoin:round; fill:#FFFFFF;fill-opacity:1.00; stroke:#000000; stroke-opacity:1.00;">
 <rect x="248" y="421" width="286" height="16" rx="0.00" shape-rendering="auto"  />
 <rect x="248" y="421" width="16" height="16" rx="0.00" shape-rendering="auto"  />
 <rect x="518" y="421" width="16" height="16" rx="0.00" shape-rendering="auto"  />
 <rect x="383" y="421" width="16" height="16" rx="0.00" shape-rendering="auto"  />
</g>
<g style="stroke-width:1;stroke-linecap:round;stroke-linejoin:round; fill:#808080;fill-opacity:1.00; stroke:#000000; stroke-opacity:0.00;">
  <path d="M 260 425 L 252 429 L 260 433 L 260 425" shape-rendering="auto"/>
</g>
<g style="stroke-width:1;stroke-linecap:round;stroke-linejoin:round; fill:#000000;fill-opacity:0.00; stroke:#000000; stroke-opacity:1.00;">
  <path d="M 260 425 L 252 429 L 260 433 L 260 425" shape-rendering="auto"/>
</g>
<g style="stroke-width:1;stroke-linecap:round;stroke-linejoin:round; fill:#808080;fill-opacity:1.00; stroke:#000000; stroke-opacity:0.00;">
  <path d="M 522 425 L 530 429 L 522 433 L 522 425" shape-rendering="auto"/>
</g>
<g style="stroke-width:1;stroke-linecap:round;stroke-linejoin:round; fill:#000000;fill-opacity:0.00; stroke:#000000; stroke-opacity:1.00;">
  <path d="M 522 425 L 530 429 L 522 433 L 522 425" shape-rendering="auto"/>
</g>
<g style="stroke-width:1;stroke-linecap:round;stroke-linejoin:round; fill:#595959;fill-opacity:1.00; stroke:#000000; stroke-opacity:0.00;">
	<text x="248.00" y="462.00" textLength="45" style="font-family:Calibri; font-weight:0; font-style:normal; font-size:10px; fill:#595959;fill-opacity:1.00; stroke:#000000; stroke-opacity:0.00; stroke-width:0; white-space: pre;" xml:space="preserve" transform="rotate(-0.00 248.00 462.00)">Descripción</text>
	<text x="262.00" y="481.00" textLength="241" style="font-family:Calibri; font-weight:0; font-style:normal; font-size:10px; fill:#595959;fill-opacity:1.00; stroke:#000000; stroke-opacity:0.00; stroke-width:0; white-space: pre;" xml:space="preserve" transform="rotate(-0.00 262.00 481.00)">This is an example of a paragraph of text that has basic HTML</text>
	<text x="262.00" y="494.00" textLength="76" style="font-family:Calibri; font-weight:0; font-style:normal; font-size:10px; fill:#595959;fill-opacity:1.00; stroke:#000000; stroke-opacity:0.00; stroke-width:0; white-space: pre;" xml:space="preserve" transform="rotate(-0.00 262.00 494.00)">formatting applied.</text>
</g>
<g style="stroke-width:1;stroke-linecap:round;stroke-linejoin:round; fill:#D6D6D6;fill-opacity:1.00; stroke:#000000; stroke-opacity:1.00;">
  <polygon points="639 252 641 258 647 258 642 261 644 267 639 264 634 267 636 261 631 258 637 258 639 252" shape-rendering="auto"   style="fill-rule:evenodd;"/>
  <polygon points="657 252 659 258 665 258 660 261 662 267 657 264 652 267 654 261 649 258 655 258 657 252" shape-rendering="auto"   style="fill-rule:evenodd;"/>
  <polygon points="675 252 677 258 683 258 678 261 680 267 675 264 670 267 672 261 667 258 673 258 675 252" shape-rendering="auto"   style="fill-rule:evenodd;"/>
  <polygon points="693 252 695 258 701 258 696 261 698 267 693 264 688 267 690 261 685 258 691 258 693 252" shape-rendering="auto"   style="fill-rule:evenodd;"/>
</g>
<g style="stroke-width:1;stroke-linecap:round;stroke-linejoin:round; fill:#FFFFFF;fill-opacity:1.00; stroke:#000000; stroke-opacity:1.00;">
  <polygon points="711 252 713 258 719 258 714 261 716 267 711 264 706 267 708 261 703 258 709 258 711 252" shape-rendering="auto"   style="fill-rule:evenodd;"/>
</g>
<g style="stroke-width:1;stroke-linecap:round;stroke-linejoin:round; fill:#595959;fill-opacity:1.00; stroke:#000000; stroke-opacity:0.00;">
	<text x="618.00" y="301.00" textLength="22" style="font-family:Calibri; font-weight:0; font-style:normal; font-size:10px; fill:#595959;fill-opacity:1.00; stroke:#000000; stroke-opacity:0.00; stroke-width:0; white-space: pre;" xml:space="preserve" transform="rotate(-0.00 618.00 301.00)">Autor</text>
	<text x="653.00" y="284.00" textLength="47" style="font-family:Calibri; font-weight:0; font-style:normal; font-size:10px; fill:#595959;fill-opacity:1.00; stroke:#000000; stroke-opacity:0.00; stroke-width:0; white-space: pre;" xml:space="preserve" transform="rotate(-0.00 653.00 284.00)">10 Compras</text>
	<text x="617.00" y="365.00" textLength="82" style="font-family:Calibri; font-weight:0; font-style:normal; font-size:10px; fill:#595959;fill-opacity:1.00; stroke:#000000; stroke-opacity:0.00; stroke-width:0; white-space: pre;" xml:space="preserve" transform="rotate(-0.00 617.00 365.00)">Fecha de publicación</text>
	<text x="617.00" y="320.00" textLength="30" style="font-family:Calibri; font-weight:0; font-style:normal; font-size:10px; fill:#595959;fill-opacity:1.00; stroke:#000000; stroke-opacity:0.00; stroke-width:0; white-space: pre;" xml:space="preserve" transform="rotate(-0.00 617.00 320.00)">Versión</text>
	<text x="617.00" y="343.00" textLength="38" style="font-family:Calibri; font-weight:0; font-style:normal; font-size:10px; fill:#595959;fill-opacity:1.00; stroke:#000000; stroke-opacity:0.00; stroke-width:0; white-space: pre;" xml:space="preserve" transform="rotate(-0.00 617.00 343.00)">Categoría</text>
</g>
<g style="stroke-width:1;stroke-linecap:round;stroke-linejoin:round; fill:#FFFFFF;fill-opacity:1.00; stroke:#000000; stroke-opacity:1.00;">
 <rect x="601" y="173" width="144" height="61" rx="0.00" shape-rendering="auto"  />
 <rect x="618" y="206" width="111" height="21" rx="0.00" shape-rendering="auto"  />
</g>
<g style="stroke-width:1;stroke-linecap:round;stroke-linejoin:round; fill:#595959;fill-opacity:1.00; stroke:#000000; stroke-opacity:0.00;">
	<text x="652.00" y="219.00" textLength="42" style="font-family:Calibri; font-weight:0; font-style:normal; font-size:10px; fill:#595959;fill-opacity:1.00; stroke:#000000; stroke-opacity:0.00; stroke-width:0; white-space: pre;" xml:space="preserve" transform="rotate(-0.00 652.00 219.00)">COMPRAR</text>
</g>
<g style="stroke-width:1;stroke-linecap:round;stroke-linejoin:round; fill:#FFFFFF;fill-opacity:1.00; stroke:#000000; stroke-opacity:1.00;">
 <rect x="619" y="423" width="111" height="20" rx="0.00" shape-rendering="auto"  />
</g>
<g style="stroke-width:1;stroke-linecap:round;stroke-linejoin:round; fill:#595959;fill-opacity:1.00; stroke:#000000; stroke-opacity:0.00;">
	<text x="654.00" y="436.00" textLength="40" style="font-family:Calibri; font-weight:0; font-style:normal; font-size:10px; fill:#595959;fill-opacity:1.00; stroke:#000000; stroke-opacity:0.00; stroke-width:0; white-space: pre;" xml:space="preserve" transform="rotate(-0.00 654.00 436.00)">Descargar</text>
	<text x="618.00" y="199.00" textLength="44" style="font-family:Calibri; font-weight:0; font-style:normal; font-size:10px; fill:#595959;fill-opacity:1.00; stroke:#000000; stroke-opacity:0.00; stroke-width:0; white-space: pre;" xml:space="preserve" transform="rotate(-0.00 618.00 199.00)">Precio: 10$</text>
</g>
<g style="stroke-width:1;stroke-linecap:round;stroke-linejoin:round; fill:#000000;fill-opacity:1.00; stroke:#000000; stroke-opacity:0.00;">
	<text x="231.00" y="551.00" textLength="130" style="font-family:Arial; font-weight:0; font-style:normal; font-size:23px; fill:#000000;fill-opacity:1.00; stroke:#000000; stroke-opacity:0.00; stroke-width:0; white-space: pre;" xml:space="preserve" transform="rotate(-0.00 231.00 551.00)">Comentarios</text>
</g>
<g style="stroke-width:1;stroke-linecap:round;stroke-linejoin:round; fill:#FFFFFF;fill-opacity:1.00; stroke:#000000; stroke-opacity:1.00;">
 <rect x="237" y="562" width="461" height="68" rx="0.00" shape-rendering="auto"  />
</g>
<g style="stroke-width:1;stroke-linecap:round;stroke-linejoin:round; fill:#595959;fill-opacity:1.00; stroke:#000000; stroke-opacity:0.00;">
	<text x="251.00" y="586.00" textLength="59" style="font-family:Calibri; font-weight:0; font-style:normal; font-size:10px; fill:#595959;fill-opacity:1.00; stroke:#000000; stroke-opacity:0.00; stroke-width:0; white-space: pre;" xml:space="preserve" transform="rotate(-0.00 251.00 586.00)">NombreCliente</text>
	<text x="593.00" y="586.00" textLength="60" style="font-family:Calibri; font-weight:0; font-style:normal; font-size:10px; fill:#595959;fill-opacity:1.00; stroke:#000000; stroke-opacity:0.00; stroke-width:0; white-space: pre;" xml:space="preserve" transform="rotate(-0.00 593.00 586.00)">Fecha de envio</text>
	<text x="251.00" y="610.00" textLength="184" style="font-family:Calibri; font-weight:0; font-style:normal; font-size:10px; fill:#595959;fill-opacity:1.00; stroke:#000000; stroke-opacity:0.00; stroke-width:0; white-space: pre;" xml:space="preserve" transform="rotate(-0.00 251.00 610.00)">Ejemplo de comentario realizado por un cliente</text>
</g>
<g style="stroke-width:1;stroke-linecap:round;stroke-linejoin:round; fill:#D6D6D6;fill-opacity:1.00; stroke:#000000; stroke-opacity:1.00;">
  <polygon points="332 577 333 581 338 581 334 584 336 588 332 586 328 588 330 584 326 581 331 581 332 577" shape-rendering="auto"   style="fill-rule:evenodd;"/>
  <polygon points="346 577 347 581 352 581 348 584 350 588 346 586 342 588 344 584 340 581 345 581 346 577" shape-rendering="auto"   style="fill-rule:evenodd;"/>
  <polygon points="360 577 361 581 366 581 362 584 364 588 360 586 356 588 358 584 354 581 359 581 360 577" shape-rendering="auto"   style="fill-rule:evenodd;"/>
</g>
<g style="stroke-width:1;stroke-linecap:round;stroke-linejoin:round; fill:#FFFFFF;fill-opacity:1.00; stroke:#000000; stroke-opacity:1.00;">
  <polygon points="374 577 375 581 380 581 376 584 378 588 374 586 370 588 372 584 368 581 373 581 374 577" shape-rendering="auto"   style="fill-rule:evenodd;"/>
  <polygon points="388 577 389 581 394 581 390 584 392 588 388 586 384 588 386 584 382 581 387 581 388 577" shape-rendering="auto"   style="fill-rule:evenodd;"/>
 <rect x="237" y="639" width="461" height="68" rx="0.00" shape-rendering="auto"  />
</g>
<g style="stroke-width:1;stroke-linecap:round;stroke-linejoin:round; fill:#595959;fill-opacity:1.00; stroke:#000000; stroke-opacity:0.00;">
	<text x="251.00" y="663.00" textLength="59" style="font-family:Calibri; font-weight:0; font-style:normal; font-size:10px; fill:#595959;fill-opacity:1.00; stroke:#000000; stroke-opacity:0.00; stroke-width:0; white-space: pre;" xml:space="preserve" transform="rotate(-0.00 251.00 663.00)">NombreCliente</text>
	<text x="593.00" y="663.00" textLength="60" style="font-family:Calibri; font-weight:0; font-style:normal; font-size:10px; fill:#595959;fill-opacity:1.00; stroke:#000000; stroke-opacity:0.00; stroke-width:0; white-space: pre;" xml:space="preserve" transform="rotate(-0.00 593.00 663.00)">Fecha de envio</text>
	<text x="251.00" y="687.00" textLength="184" style="font-family:Calibri; font-weight:0; font-style:normal; font-size:10px; fill:#595959;fill-opacity:1.00; stroke:#000000; stroke-opacity:0.00; stroke-width:0; white-space: pre;" xml:space="preserve" transform="rotate(-0.00 251.00 687.00)">Ejemplo de comentario realizado por un cliente</text>
</g>
<g style="stroke-width:1;stroke-linecap:round;stroke-linejoin:round; fill:#D6D6D6;fill-opacity:1.00; stroke:#000000; stroke-opacity:1.00;">
  <polygon points="332 654 333 658 338 658 334 661 336 665 332 663 328 665 330 661 326 658 331 658 332 654" shape-rendering="auto"   style="fill-rule:evenodd;"/>
  <polygon points="346 654 347 658 352 658 348 661 350 665 346 663 342 665 344 661 340 658 345 658 346 654" shape-rendering="auto"   style="fill-rule:evenodd;"/>
  <polygon points="360 654 361 658 366 658 362 661 364 665 360 663 356 665 358 661 354 658 359 658 360 654" shape-rendering="auto"   style="fill-rule:evenodd;"/>
  <polygon points="374 654 375 658 380 658 376 661 378 665 374 663 370 665 372 661 368 658 373 658 374 654" shape-rendering="auto"   style="fill-rule:evenodd;"/>
  <polygon points="388 654 389 658 394 658 390 661 392 665 388 663 384 665 386 661 382 658 387 658 388 654" shape-rendering="auto"   style="fill-rule:evenodd;"/>
</g>
<g style="stroke-width:1;stroke-linecap:round;stroke-linejoin:round; fill:#FFFFFF;fill-opacity:1.00; stroke:#000000; stroke-opacity:1.00;">
 <rect x="619" y="451" width="111" height="20" rx="0.00" shape-rendering="auto"  />
</g>
<g style="stroke-width:1;stroke-linecap:round;stroke-linejoin:round; fill:#595959;fill-opacity:1.00; stroke:#000000; stroke-opacity:0.00;">
	<text x="659.00" y="464.00" textLength="31" style="font-family:Calibri; font-weight:0; font-style:normal; font-size:10px; fill:#595959;fill-opacity:1.00; stroke:#000000; stroke-opacity:0.00; stroke-width:0; white-space: pre;" xml:space="preserve" transform="rotate(-0.00 659.00 464.00)">Calificar</text>
</g>
<g style="stroke-width:1;stroke-linecap:round;stroke-linejoin:round; fill:#FFFFFF;fill-opacity:1.00; stroke:#000000; stroke-opacity:1.00;">
 <rect x="619" y="480" width="111" height="20" rx="0.00" shape-rendering="auto"  />
</g>
<g style="stroke-width:1;stroke-linecap:round;stroke-linejoin:round; fill:#595959;fill-opacity:1.00; stroke:#000000; stroke-opacity:0.00;">
	<text x="655.00" y="493.00" textLength="39" style="font-family:Calibri; font-weight:0; font-style:normal; font-size:10px; fill:#595959;fill-opacity:1.00; stroke:#000000; stroke-opacity:0.00; stroke-width:0; white-space: pre;" xml:space="preserve" transform="rotate(-0.00 655.00 493.00)">Comentar</text>
	<text x="634.00" y="418.00" textLength="78" style="font-family:Calibri; font-weight:0; font-style:normal; font-size:10px; fill:#595959;fill-opacity:1.00; stroke:#000000; stroke-opacity:0.00; stroke-width:0; white-space: pre;" xml:space="preserve" transform="rotate(-0.00 634.00 418.00)">Producto Comprado</text>
</g>
<g style="stroke-width:1;stroke-linecap:round;stroke-linejoin:round; fill:#FFFFFF;fill-opacity:1.00; stroke:#000000; stroke-opacity:1.00;">
 <rect x="806" y="365" width="180" height="68" rx="0.00" shape-rendering="auto"  />
  <polygon points="859 406 861 412 867 412 862 415 864 421 859 418 854 421 856 415 851 412 857 412 859 406" shape-rendering="auto"   style="fill-rule:evenodd;"/>
  <polygon points="877 406 879 412 885 412 880 415 882 421 877 418 872 421 874 415 869 412 875 412 877 406" shape-rendering="auto"   style="fill-rule:evenodd;"/>
  <polygon points="895 406 897 412 903 412 898 415 900 421 895 418 890 421 892 415 887 412 893 412 895 406" shape-rendering="auto"   style="fill-rule:evenodd;"/>
  <polygon points="913 406 915 412 921 412 916 415 918 421 913 418 908 421 910 415 905 412 911 412 913 406" shape-rendering="auto"   style="fill-rule:evenodd;"/>
  <polygon points="931 406 933 412 939 412 934 415 936 421 931 418 926 421 928 415 923 412 929 412 931 406" shape-rendering="auto"   style="fill-rule:evenodd;"/>
</g>
<g style="stroke-width:1;stroke-linecap:round;stroke-linejoin:round; fill:#595959;fill-opacity:1.00; stroke:#000000; stroke-opacity:0.00;">
	<text x="851.00" y="390.00" textLength="80" style="font-family:Calibri; font-weight:0; font-style:normal; font-size:10px; fill:#595959;fill-opacity:1.00; stroke:#000000; stroke-opacity:0.00; stroke-width:0; white-space: pre;" xml:space="preserve" transform="rotate(-0.00 851.00 390.00)">Califique el Producto</text>
</g>
<g style="stroke-width:1;stroke-linecap:round;stroke-linejoin:round; fill:#FFFFFF;fill-opacity:1.00; stroke:#000000; stroke-opacity:1.00;">
 <rect x="806" y="443" width="180" height="163" rx="0.00" shape-rendering="auto"  />
</g>
<g style="stroke-width:1;stroke-linecap:round;stroke-linejoin:round; fill:#FFFFFF;fill-opacity:1.00; stroke:#D6D6D6; stroke-opacity:1.00;">
 <rect x="822" y="488" width="145" height="101" rx="0.00" shape-rendering="auto"  />
</g>
<g style="stroke-width:1;stroke-linecap:round;stroke-linejoin:round; fill:#595959;fill-opacity:1.00; stroke:#000000; stroke-opacity:0.00;">
	<text x="825.00" y="542.00" textLength="46" style="font-family:Calibri; font-weight:0; font-style:normal; font-size:10px; fill:#595959;fill-opacity:1.00; stroke:#000000; stroke-opacity:0.00; stroke-width:0; white-space: pre;" xml:space="preserve" transform="rotate(-0.00 825.00 542.00)">Comentario</text>
	<text x="825.00" y="469.00" textLength="82" style="font-family:Calibri; font-weight:0; font-style:normal; font-size:10px; fill:#595959;fill-opacity:1.00; stroke:#000000; stroke-opacity:0.00; stroke-width:0; white-space: pre;" xml:space="preserve" transform="rotate(-0.00 825.00 469.00)">Comente el Producto</text>
	<text x="670.00" y="199.00" textLength="60" style="font-family:Calibri; font-weight:0; font-style:normal; font-size:10px; fill:#595959;fill-opacity:1.00; stroke:#000000; stroke-opacity:0.00; stroke-width:0; white-space: pre;" xml:space="preserve" transform="rotate(-0.00 670.00 199.00)">Mi Saldo: 100$</text>
</g>
<g style="stroke-width:1;stroke-linecap:round;stroke-linejoin:round; fill:#FFFFFF;fill-opacity:1.00; stroke:#000000; stroke-opacity:0.00;">
  <path d="M 37 179 L 147 179 L 147 264 L 37 264 Z" shape-rendering="auto"/>
</g>
<g style="stroke-width:1;stroke-linecap:round;stroke-linejoin:bevel; fill:#000000;fill-opacity:0.00; stroke:#9A8484; stroke-opacity:1.00;">
  <path d="M 47 179 L 50 179 L 50 264 L 47 264 Z" shape-rendering="auto"/>
  <path d="M 37 179 L 147 179 L 147 264 L 37 264 Z" shape-rendering="auto"/>
</g>
<g style="stroke-width:1;stroke-linecap:round;stroke-linejoin:bevel; fill:#595959;fill-opacity:1.00; stroke:#000000; stroke-opacity:0.00;">
	<text x="54.00" y="194.00" textLength="37" style="font-family:Calibri; font-weight:700; font-style:normal; font-size:10px; fill:#595959;fill-opacity:1.00; stroke:#000000; stroke-opacity:0.00; stroke-width:0; white-space: pre;" xml:space="preserve" transform="rotate(-0.00 54.00 194.00)">RF-016-1</text>
	<text x="54.00" y="207.00" textLength="49" style="font-family:Calibri; font-weight:700; font-style:normal; font-size:10px; fill:#595959;fill-opacity:1.00; stroke:#000000; stroke-opacity:0.00; stroke-width:0; white-space: pre;" xml:space="preserve" transform="rotate(-0.00 54.00 207.00)">Información</text>
	<text x="54.00" y="220.00" textLength="48" style="font-family:Calibri; font-weight:700; font-style:normal; font-size:10px; fill:#595959;fill-opacity:1.00; stroke:#000000; stroke-opacity:0.00; stroke-width:0; white-space: pre;" xml:space="preserve" transform="rotate(-0.00 54.00 220.00)">principal del</text>
	<text x="54.00" y="233.00" textLength="68" style="font-family:Calibri; font-weight:700; font-style:normal; font-size:10px; fill:#595959;fill-opacity:1.00; stroke:#000000; stroke-opacity:0.00; stroke-width:0; white-space: pre;" xml:space="preserve" transform="rotate(-0.00 54.00 233.00)">producto para su</text>
	<text x="54.00" y="246.00" textLength="52" style="font-family:Calibri; font-weight:700; font-style:normal; font-size:10px; fill:#595959;fill-opacity:1.00; stroke:#000000; stroke-opacity:0.00; stroke-width:0; white-space: pre;" xml:space="preserve" transform="rotate(-0.00 54.00 246.00)">vista general</text>
</g>
<g style="stroke-width:1;stroke-linecap:round;stroke-linejoin:bevel; fill:#FFFFFF;fill-opacity:1.00; stroke:#9A8484; stroke-opacity:1.00;">
  <path d="M 117 249 C 117 247 119 246 122 246 125 246 127 247 127 249 127 251 125 252 122 252 119 252 117 251 117 249 Z" shape-rendering="auto"/>
  <path d="M 131 249 C 131 247 133 246 136 246 139 246 141 247 141 249 141 251 139 252 136 252 133 252 131 251 131 249 Z" shape-rendering="auto"/>
</g>
<g style="stroke-width:1;stroke-linecap:round;stroke-linejoin:bevel; fill:#000000;fill-opacity:0.00; stroke:#9A8484; stroke-opacity:1.00;">
  <path d="M 127 249 L 131 249" shape-rendering="auto"/>
</g>
<g style="stroke-width:1;stroke-linecap:round;stroke-linejoin:bevel; fill:#595959;fill-opacity:1.00; stroke:#000000; stroke-opacity:0.00;">
	<text x="80.00" y="279.00" textLength="24" style="font-family:Calibri; font-weight:0; font-style:italic; font-size:10px; fill:#595959;fill-opacity:1.00; stroke:#000000; stroke-opacity:0.00; stroke-width:0; white-space: pre;" xml:space="preserve" transform="rotate(-0.00 80.00 279.00)">(from </text>
	<text x="34.00" y="292.00" textLength="117" style="font-family:Calibri; font-weight:0; font-style:italic; font-size:10px; fill:#595959;fill-opacity:1.00; stroke:#000000; stroke-opacity:0.00; stroke-width:0; white-space: pre;" xml:space="preserve" transform="rotate(-0.00 34.00 292.00)">Requerimientos_Funcionales)</text>
</g>
<g style="stroke-width:1;stroke-linecap:round;stroke-linejoin:bevel; fill:#FFFFFF;fill-opacity:1.00; stroke:#000000; stroke-opacity:0.00;">
  <path d="M 37 600 L 147 600 L 147 672 L 37 672 Z" shape-rendering="auto"/>
</g>
<g style="stroke-width:1;stroke-linecap:round;stroke-linejoin:bevel; fill:#000000;fill-opacity:0.00; stroke:#9A8484; stroke-opacity:1.00;">
  <path d="M 47 600 L 50 600 L 50 672 L 47 672 Z" shape-rendering="auto"/>
  <path d="M 37 600 L 147 600 L 147 672 L 37 672 Z" shape-rendering="auto"/>
</g>
<g style="stroke-width:1;stroke-linecap:round;stroke-linejoin:bevel; fill:#595959;fill-opacity:1.00; stroke:#000000; stroke-opacity:0.00;">
	<text x="54.00" y="615.00" textLength="37" style="font-family:Calibri; font-weight:700; font-style:normal; font-size:10px; fill:#595959;fill-opacity:1.00; stroke:#000000; stroke-opacity:0.00; stroke-width:0; white-space: pre;" xml:space="preserve" transform="rotate(-0.00 54.00 615.00)">RF-016-2</text>
	<text x="54.00" y="628.00" textLength="65" style="font-family:Calibri; font-weight:700; font-style:normal; font-size:10px; fill:#595959;fill-opacity:1.00; stroke:#000000; stroke-opacity:0.00; stroke-width:0; white-space: pre;" xml:space="preserve" transform="rotate(-0.00 54.00 628.00)">Comentarios del</text>
	<text x="54.00" y="641.00" textLength="59" style="font-family:Calibri; font-weight:700; font-style:normal; font-size:10px; fill:#595959;fill-opacity:1.00; stroke:#000000; stroke-opacity:0.00; stroke-width:0; white-space: pre;" xml:space="preserve" transform="rotate(-0.00 54.00 641.00)">producto en su</text>
	<text x="54.00" y="654.00" textLength="52" style="font-family:Calibri; font-weight:700; font-style:normal; font-size:10px; fill:#595959;fill-opacity:1.00; stroke:#000000; stroke-opacity:0.00; stroke-width:0; white-space: pre;" xml:space="preserve" transform="rotate(-0.00 54.00 654.00)">vista general</text>
</g>
<g style="stroke-width:1;stroke-linecap:round;stroke-linejoin:bevel; fill:#FFFFFF;fill-opacity:1.00; stroke:#9A8484; stroke-opacity:1.00;">
  <path d="M 117 657 C 117 655 119 654 122 654 125 654 127 655 127 657 127 659 125 660 122 660 119 660 117 659 117 657 Z" shape-rendering="auto"/>
  <path d="M 131 657 C 131 655 133 654 136 654 139 654 141 655 141 657 141 659 139 660 136 660 133 660 131 659 131 657 Z" shape-rendering="auto"/>
</g>
<g style="stroke-width:1;stroke-linecap:round;stroke-linejoin:bevel; fill:#000000;fill-opacity:0.00; stroke:#9A8484; stroke-opacity:1.00;">
  <path d="M 127 657 L 131 657" shape-rendering="auto"/>
</g>
<g style="stroke-width:1;stroke-linecap:round;stroke-linejoin:bevel; fill:#595959;fill-opacity:1.00; stroke:#000000; stroke-opacity:0.00;">
	<text x="80.00" y="687.00" textLength="24" style="font-family:Calibri; font-weight:0; font-style:italic; font-size:10px; fill:#595959;fill-opacity:1.00; stroke:#000000; stroke-opacity:0.00; stroke-width:0; white-space: pre;" xml:space="preserve" transform="rotate(-0.00 80.00 687.00)">(from </text>
	<text x="34.00" y="700.00" textLength="117" style="font-family:Calibri; font-weight:0; font-style:italic; font-size:10px; fill:#595959;fill-opacity:1.00; stroke:#000000; stroke-opacity:0.00; stroke-width:0; white-space: pre;" xml:space="preserve" transform="rotate(-0.00 34.00 700.00)">Requerimientos_Funcionales)</text>
</g>
<g style="stroke-width:1;stroke-linecap:round;stroke-linejoin:bevel; fill:#FFFFFF;fill-opacity:1.00; stroke:#000000; stroke-opacity:0.00;">
  <path d="M 37 64 L 147 64 L 147 136 L 37 136 Z" shape-rendering="auto"/>
</g>
<g style="stroke-width:1;stroke-linecap:round;stroke-linejoin:bevel; fill:#000000;fill-opacity:0.00; stroke:#9A8484; stroke-opacity:1.00;">
  <path d="M 47 64 L 50 64 L 50 136 L 47 136 Z" shape-rendering="auto"/>
  <path d="M 37 64 L 147 64 L 147 136 L 37 136 Z" shape-rendering="auto"/>
</g>
<g style="stroke-width:1;stroke-linecap:round;stroke-linejoin:bevel; fill:#595959;fill-opacity:1.00; stroke:#000000; stroke-opacity:0.00;">
	<text x="54.00" y="79.00" textLength="75" style="font-family:Calibri; font-weight:700; font-style:normal; font-size:10px; fill:#595959;fill-opacity:1.00; stroke:#000000; stroke-opacity:0.00; stroke-width:0; white-space: pre;" xml:space="preserve" transform="rotate(-0.00 54.00 79.00)">RF-016-3 Botón de</text>
	<text x="54.00" y="92.00" textLength="45" style="font-family:Calibri; font-weight:700; font-style:normal; font-size:10px; fill:#595959;fill-opacity:1.00; stroke:#000000; stroke-opacity:0.00; stroke-width:0; white-space: pre;" xml:space="preserve" transform="rotate(-0.00 54.00 92.00)">compra del</text>
	<text x="54.00" y="105.00" textLength="59" style="font-family:Calibri; font-weight:700; font-style:normal; font-size:10px; fill:#595959;fill-opacity:1.00; stroke:#000000; stroke-opacity:0.00; stroke-width:0; white-space: pre;" xml:space="preserve" transform="rotate(-0.00 54.00 105.00)">producto en su</text>
	<text x="54.00" y="118.00" textLength="52" style="font-family:Calibri; font-weight:700; font-style:normal; font-size:10px; fill:#595959;fill-opacity:1.00; stroke:#000000; stroke-opacity:0.00; stroke-width:0; white-space: pre;" xml:space="preserve" transform="rotate(-0.00 54.00 118.00)">vista general</text>
</g>
<g style="stroke-width:1;stroke-linecap:round;stroke-linejoin:bevel; fill:#FFFFFF;fill-opacity:1.00; stroke:#9A8484; stroke-opacity:1.00;">
  <path d="M 117 121 C 117 119 119 118 122 118 125 118 127 119 127 121 127 123 125 124 122 124 119 124 117 123 117 121 Z" shape-rendering="auto"/>
  <path d="M 131 121 C 131 119 133 118 136 118 139 118 141 119 141 121 141 123 139 124 136 124 133 124 131 123 131 121 Z" shape-rendering="auto"/>
</g>
<g style="stroke-width:1;stroke-linecap:round;stroke-linejoin:bevel; fill:#000000;fill-opacity:0.00; stroke:#9A8484; stroke-opacity:1.00;">
  <path d="M 127 121 L 131 121" shape-rendering="auto"/>
</g>
<g style="stroke-width:1;stroke-linecap:round;stroke-linejoin:bevel; fill:#595959;fill-opacity:1.00; stroke:#000000; stroke-opacity:0.00;">
	<text x="80.00" y="151.00" textLength="24" style="font-family:Calibri; font-weight:0; font-style:italic; font-size:10px; fill:#595959;fill-opacity:1.00; stroke:#000000; stroke-opacity:0.00; stroke-width:0; white-space: pre;" xml:space="preserve" transform="rotate(-0.00 80.00 151.00)">(from </text>
	<text x="34.00" y="164.00" textLength="117" style="font-family:Calibri; font-weight:0; font-style:italic; font-size:10px; fill:#595959;fill-opacity:1.00; stroke:#000000; stroke-opacity:0.00; stroke-width:0; white-space: pre;" xml:space="preserve" transform="rotate(-0.00 34.00 164.00)">Requerimientos_Funcionales)</text>
</g>
<g style="stroke-width:1;stroke-linecap:round;stroke-linejoin:bevel; fill:#FFFFFF;fill-opacity:1.00; stroke:#000000; stroke-opacity:0.00;">
  <path d="M 37 325 L 147 325 L 147 397 L 37 397 Z" shape-rendering="auto"/>
</g>
<g style="stroke-width:1;stroke-linecap:round;stroke-linejoin:bevel; fill:#000000;fill-opacity:0.00; stroke:#9A8484; stroke-opacity:1.00;">
  <path d="M 47 325 L 50 325 L 50 397 L 47 397 Z" shape-rendering="auto"/>
  <path d="M 37 325 L 147 325 L 147 397 L 37 397 Z" shape-rendering="auto"/>
</g>
<g style="stroke-width:1;stroke-linecap:round;stroke-linejoin:bevel; fill:#595959;fill-opacity:1.00; stroke:#000000; stroke-opacity:0.00;">
	<text x="54.00" y="340.00" textLength="37" style="font-family:Calibri; font-weight:700; font-style:normal; font-size:10px; fill:#595959;fill-opacity:1.00; stroke:#000000; stroke-opacity:0.00; stroke-width:0; white-space: pre;" xml:space="preserve" transform="rotate(-0.00 54.00 340.00)">RF-016-4</text>
	<text x="54.00" y="353.00" textLength="73" style="font-family:Calibri; font-weight:700; font-style:normal; font-size:10px; fill:#595959;fill-opacity:1.00; stroke:#000000; stroke-opacity:0.00; stroke-width:0; white-space: pre;" xml:space="preserve" transform="rotate(-0.00 54.00 353.00)">Características del</text>
	<text x="54.00" y="366.00" textLength="59" style="font-family:Calibri; font-weight:700; font-style:normal; font-size:10px; fill:#595959;fill-opacity:1.00; stroke:#000000; stroke-opacity:0.00; stroke-width:0; white-space: pre;" xml:space="preserve" transform="rotate(-0.00 54.00 366.00)">producto en su</text>
	<text x="54.00" y="379.00" textLength="52" style="font-family:Calibri; font-weight:700; font-style:normal; font-size:10px; fill:#595959;fill-opacity:1.00; stroke:#000000; stroke-opacity:0.00; stroke-width:0; white-space: pre;" xml:space="preserve" transform="rotate(-0.00 54.00 379.00)">vista general</text>
</g>
<g style="stroke-width:1;stroke-linecap:round;stroke-linejoin:bevel; fill:#FFFFFF;fill-opacity:1.00; stroke:#9A8484; stroke-opacity:1.00;">
  <path d="M 117 382 C 117 380 119 379 122 379 125 379 127 380 127 382 127 384 125 385 122 385 119 385 117 384 117 382 Z" shape-rendering="auto"/>
  <path d="M 131 382 C 131 380 133 379 136 379 139 379 141 380 141 382 141 384 139 385 136 385 133 385 131 384 131 382 Z" shape-rendering="auto"/>
</g>
<g style="stroke-width:1;stroke-linecap:round;stroke-linejoin:bevel; fill:#000000;fill-opacity:0.00; stroke:#9A8484; stroke-opacity:1.00;">
  <path d="M 127 382 L 131 382" shape-rendering="auto"/>
</g>
<g style="stroke-width:1;stroke-linecap:round;stroke-linejoin:bevel; fill:#595959;fill-opacity:1.00; stroke:#000000; stroke-opacity:0.00;">
	<text x="80.00" y="412.00" textLength="24" style="font-family:Calibri; font-weight:0; font-style:italic; font-size:10px; fill:#595959;fill-opacity:1.00; stroke:#000000; stroke-opacity:0.00; stroke-width:0; white-space: pre;" xml:space="preserve" transform="rotate(-0.00 80.00 412.00)">(from </text>
	<text x="34.00" y="425.00" textLength="117" style="font-family:Calibri; font-weight:0; font-style:italic; font-size:10px; fill:#595959;fill-opacity:1.00; stroke:#000000; stroke-opacity:0.00; stroke-width:0; white-space: pre;" xml:space="preserve" transform="rotate(-0.00 34.00 425.00)">Requerimientos_Funcionales)</text>
</g>
<g style="stroke-width:1;stroke-linecap:round;stroke-linejoin:bevel; fill:#FFFFFF;fill-opacity:1.00; stroke:#000000; stroke-opacity:0.00;">
  <path d="M 37 439 L 147 439 L 147 537 L 37 537 Z" shape-rendering="auto"/>
</g>
<g style="stroke-width:1;stroke-linecap:round;stroke-linejoin:bevel; fill:#000000;fill-opacity:0.00; stroke:#9A8484; stroke-opacity:1.00;">
  <path d="M 47 439 L 50 439 L 50 537 L 47 537 Z" shape-rendering="auto"/>
  <path d="M 37 439 L 147 439 L 147 537 L 37 537 Z" shape-rendering="auto"/>
</g>
<g style="stroke-width:1;stroke-linecap:round;stroke-linejoin:bevel; fill:#595959;fill-opacity:1.00; stroke:#000000; stroke-opacity:0.00;">
	<text x="54.00" y="454.00" textLength="37" style="font-family:Calibri; font-weight:700; font-style:normal; font-size:10px; fill:#595959;fill-opacity:1.00; stroke:#000000; stroke-opacity:0.00; stroke-width:0; white-space: pre;" xml:space="preserve" transform="rotate(-0.00 54.00 454.00)">RF-016-5</text>
	<text x="54.00" y="467.00" textLength="51" style="font-family:Calibri; font-weight:700; font-style:normal; font-size:10px; fill:#595959;fill-opacity:1.00; stroke:#000000; stroke-opacity:0.00; stroke-width:0; white-space: pre;" xml:space="preserve" transform="rotate(-0.00 54.00 467.00)">Opciones del</text>
	<text x="54.00" y="480.00" textLength="36" style="font-family:Calibri; font-weight:700; font-style:normal; font-size:10px; fill:#595959;fill-opacity:1.00; stroke:#000000; stroke-opacity:0.00; stroke-width:0; white-space: pre;" xml:space="preserve" transform="rotate(-0.00 54.00 480.00)">producto</text>
	<text x="54.00" y="493.00" textLength="62" style="font-family:Calibri; font-weight:700; font-style:normal; font-size:10px; fill:#595959;fill-opacity:1.00; stroke:#000000; stroke-opacity:0.00; stroke-width:0; white-space: pre;" xml:space="preserve" transform="rotate(-0.00 54.00 493.00)">comprado en la</text>
	<text x="54.00" y="506.00" textLength="66" style="font-family:Calibri; font-weight:700; font-style:normal; font-size:10px; fill:#595959;fill-opacity:1.00; stroke:#000000; stroke-opacity:0.00; stroke-width:0; white-space: pre;" xml:space="preserve" transform="rotate(-0.00 54.00 506.00)">vista general del</text>
	<text x="54.00" y="519.00" textLength="36" style="font-family:Calibri; font-weight:700; font-style:normal; font-size:10px; fill:#595959;fill-opacity:1.00; stroke:#000000; stroke-opacity:0.00; stroke-width:0; white-space: pre;" xml:space="preserve" transform="rotate(-0.00 54.00 519.00)">producto</text>
</g>
<g style="stroke-width:1;stroke-linecap:round;stroke-linejoin:bevel; fill:#FFFFFF;fill-opacity:1.00; stroke:#9A8484; stroke-opacity:1.00;">
  <path d="M 117 522 C 117 520 119 519 122 519 125 519 127 520 127 522 127 524 125 525 122 525 119 525 117 524 117 522 Z" shape-rendering="auto"/>
  <path d="M 131 522 C 131 520 133 519 136 519 139 519 141 520 141 522 141 524 139 525 136 525 133 525 131 524 131 522 Z" shape-rendering="auto"/>
</g>
<g style="stroke-width:1;stroke-linecap:round;stroke-linejoin:bevel; fill:#000000;fill-opacity:0.00; stroke:#9A8484; stroke-opacity:1.00;">
  <path d="M 127 522 L 131 522" shape-rendering="auto"/>
</g>
<g style="stroke-width:1;stroke-linecap:round;stroke-linejoin:bevel; fill:#595959;fill-opacity:1.00; stroke:#000000; stroke-opacity:0.00;">
	<text x="80.00" y="552.00" textLength="24" style="font-family:Calibri; font-weight:0; font-style:italic; font-size:10px; fill:#595959;fill-opacity:1.00; stroke:#000000; stroke-opacity:0.00; stroke-width:0; white-space: pre;" xml:space="preserve" transform="rotate(-0.00 80.00 552.00)">(from </text>
	<text x="34.00" y="565.00" textLength="117" style="font-family:Calibri; font-weight:0; font-style:italic; font-size:10px; fill:#595959;fill-opacity:1.00; stroke:#000000; stroke-opacity:0.00; stroke-width:0; white-space: pre;" xml:space="preserve" transform="rotate(-0.00 34.00 565.00)">Requerimientos_Funcionales)</text>
</g>
<g style="stroke-width:1;stroke-linecap:square;stroke-linejoin:round; fill:#000000;fill-opacity:0.00; stroke:#69738C; stroke-opacity:1.00;" stroke-dasharray="6,3">
  <path d="M 806 422 L 730 456 M 806 422" shape-rendering="auto"/>
</g>
<g style="stroke-width:1;stroke-linecap:round;stroke-linejoin:bevel; fill:#000000;fill-opacity:0.00; stroke:#69738C; stroke-opacity:1.00;">
  <path d="M 794 433 L 806 422 L 790 424" shape-rendering="auto"/>
</g>
<g style="stroke-width:1;stroke-linecap:square;stroke-linejoin:round; fill:#000000;fill-opacity:0.00; stroke:#69738C; stroke-opacity:1.00;" stroke-dasharray="6,3">
  <path d="M 806 510 L 730 498 M 806 510" shape-rendering="auto"/>
</g>
<g style="stroke-width:1;stroke-linecap:round;stroke-linejoin:bevel; fill:#000000;fill-opacity:0.00; stroke:#69738C; stroke-opacity:1.00;">
  <path d="M 790 513 L 806 510 L 792 503" shape-rendering="auto"/>
</g>
<g style="stroke-width:1;stroke-linecap:square;stroke-linejoin:round; fill:#000000;fill-opacity:0.00; stroke:#69738C; stroke-opacity:1.00;" stroke-dasharray="6,3">
  <path d="M 232 275 L 147 242 M 232 275" shape-rendering="auto"/>
</g>
<g style="stroke-width:1;stroke-linecap:round;stroke-linejoin:bevel; fill:#000000;fill-opacity:0.00; stroke:#69738C; stroke-opacity:1.00;">
  <path d="M 216 274 L 232 275 L 220 265" shape-rendering="auto"/>
</g>
<g style="stroke-width:1;stroke-linecap:square;stroke-linejoin:round; fill:#000000;fill-opacity:0.00; stroke:#69738C; stroke-opacity:1.00;" stroke-dasharray="6,3">
  <path d="M 237 620 L 147 630 M 237 620" shape-rendering="auto"/>
</g>
<g style="stroke-width:1;stroke-linecap:round;stroke-linejoin:bevel; fill:#000000;fill-opacity:0.00; stroke:#69738C; stroke-opacity:1.00;">
  <path d="M 223 627 L 237 620 L 222 617" shape-rendering="auto"/>
</g>
<g style="stroke-width:1;stroke-linecap:square;stroke-linejoin:round; fill:#000000;fill-opacity:0.00; stroke:#69738C; stroke-opacity:1.00;" stroke-dasharray="6,3">
  <path d="M 601 190 L 147 109 M 601 190" shape-rendering="auto"/>
</g>
<g style="stroke-width:1;stroke-linecap:round;stroke-linejoin:bevel; fill:#000000;fill-opacity:0.00; stroke:#69738C; stroke-opacity:1.00;">
  <path d="M 585 192 L 601 190 L 587 182" shape-rendering="auto"/>
</g>
<g style="stroke-width:1;stroke-linecap:square;stroke-linejoin:round; fill:#000000;fill-opacity:0.00; stroke:#69738C; stroke-opacity:1.00;" stroke-dasharray="6,3">
  <path d="M 602 318 L 147 356 M 602 318" shape-rendering="auto"/>
</g>
<g style="stroke-width:1;stroke-linecap:round;stroke-linejoin:bevel; fill:#000000;fill-opacity:0.00; stroke:#69738C; stroke-opacity:1.00;">
  <path d="M 587 324 L 602 318 L 587 314" shape-rendering="auto"/>
</g>
<g style="stroke-width:1;stroke-linecap:square;stroke-linejoin:round; fill:#000000;fill-opacity:0.00; stroke:#69738C; stroke-opacity:1.00;" stroke-dasharray="6,3">
  <path d="M 602 458 L 147 484 M 602 458" shape-rendering="auto"/>
</g>
<g style="stroke-width:1;stroke-linecap:round;stroke-linejoin:bevel; fill:#000000;fill-opacity:0.00; stroke:#69738C; stroke-opacity:1.00;">
  <path d="M 587 464 L 602 458 L 587 454" shape-rendering="auto"/>
</g>
<g style="stroke-width:1;stroke-linecap:round;stroke-linejoin:bevel; fill:#595959;fill-opacity:1.00; stroke:#000000; stroke-opacity:0.00;">
	<text x="359.00" y="484.00" textLength="30" style="font-family:Calibri; font-weight:0; font-style:normal; font-size:10px; fill:#595959;fill-opacity:1.00; stroke:#000000; stroke-opacity:0.00; stroke-width:0; white-space: pre;" xml:space="preserve" transform="rotate(-0.00 359.00 484.00)">«trace»</text>
	<text x="359.00" y="350.00" textLength="30" style="font-family:Calibri; font-weight:0; font-style:normal; font-size:10px; fill:#595959;fill-opacity:1.00; stroke:#000000; stroke-opacity:0.00; stroke-width:0; white-space: pre;" xml:space="preserve" transform="rotate(-0.00 359.00 350.00)">«trace»</text>
	<text x="177.00" y="638.00" textLength="30" style="font-family:Calibri; font-weight:0; font-style:normal; font-size:10px; fill:#595959;fill-opacity:1.00; stroke:#000000; stroke-opacity:0.00; stroke-width:0; white-space: pre;" xml:space="preserve" transform="rotate(-0.00 177.00 638.00)">«trace»</text>
	<text x="359.00" y="162.00" textLength="30" style="font-family:Calibri; font-weight:0; font-style:normal; font-size:10px; fill:#595959;fill-opacity:1.00; stroke:#000000; stroke-opacity:0.00; stroke-width:0; white-space: pre;" xml:space="preserve" transform="rotate(-0.00 359.00 162.00)">«trace»</text>
	<text x="174.00" y="271.00" textLength="30" style="font-family:Calibri; font-weight:0; font-style:normal; font-size:10px; fill:#595959;fill-opacity:1.00; stroke:#000000; stroke-opacity:0.00; stroke-width:0; white-space: pre;" xml:space="preserve" transform="rotate(-0.00 174.00 271.00)">«trace»</text>
</g>
</svg>
