<?xml version="1.0" encoding="UTF-8" standalone="no"?>
<!DOCTYPE svg PUBLIC "-//W3C//DTD SVG 1.0//EN" "http://www.w3.org/TR/2001/REC-SVG-20010904/DTD/svg10.dtd">

<svg xmlns="http://www.w3.org/2000/svg" xmlns:xlink="http://www.w3.org/1999/xlink" width="26.09cm" height="11.88cm" viewBox="0 0 986 449">
<title></title>
<desc>Created with Enterprise Architect (Build: 1712) 2</desc>

<g style="fill:#FFFFFF;fill-opacity:1.00;">
	 <rect x="0" y="0" width="986" height="449" shape-rendering="auto"/>
</g><g style="stroke-width:1;stroke-linecap:square;stroke-linejoin:miter; fill:#000000;fill-opacity:0.00; stroke:#000000; stroke-opacity:1.00;">
  <path d="M 6 6 L 6 443 L 980 443 L 980 6 L 6 6" shape-rendering="auto"/>
</g>
<g style="stroke-width:1;stroke-linecap:square;stroke-linejoin:miter; fill:#FFFFFF;fill-opacity:1.00; stroke:#000000; stroke-opacity:1.00;">
  <path d="M 6 26 L 129 26 L 142 12 L 142 6 L 6 6 L 6 26 Z" shape-rendering="auto"/>
</g>
<g style="stroke-width:1;stroke-linecap:square;stroke-linejoin:miter; fill:#000000;fill-opacity:1.00; stroke:#000000; stroke-opacity:0.00;">
	<text x="11.00" y="19.00" textLength="116" style="font-family:Calibri; font-weight:700; font-style:normal; font-size:10px; fill:#000000;fill-opacity:1.00; stroke:#000000; stroke-opacity:0.00; stroke-width:0; white-space: pre;" xml:space="preserve" transform="rotate(-0.00 11.00 19.00)">custom WF-001 IniciarSesion</text>
</g>
<g style="stroke-width:1;stroke-linecap:square;stroke-linejoin:miter; fill:#FFFFFF;fill-opacity:1.00; stroke:#000000; stroke-opacity:1.00;">
 <rect x="194" y="40" width="541" height="376" rx="0.00" shape-rendering="auto"  />
</g>
<g style="stroke-width:1;stroke-linecap:square;stroke-linejoin:miter; fill:#595959;fill-opacity:1.00; stroke:#000000; stroke-opacity:0.00;">
	<text x="205.00" y="55.00" textLength="20" style="font-family:Calibri; font-weight:0; font-style:normal; font-size:10px; fill:#595959;fill-opacity:1.00; stroke:#000000; stroke-opacity:0.00; stroke-width:0; white-space: pre;" xml:space="preserve" transform="rotate(-0.00 205.00 55.00)">Tab1</text>
	<text x="331.00" y="55.00" textLength="20" style="font-family:Calibri; font-weight:0; font-style:normal; font-size:10px; fill:#595959;fill-opacity:1.00; stroke:#000000; stroke-opacity:0.00; stroke-width:0; white-space: pre;" xml:space="preserve" transform="rotate(-0.00 331.00 55.00)">Tab2</text>
</g>
<g style="stroke-width:1;stroke-linecap:square;stroke-linejoin:miter; fill:#FFFFFF;fill-opacity:1.00; stroke:#000000; stroke-opacity:1.00;">
 <rect x="695" y="61" width="8" height="8" rx="0.00" shape-rendering="auto"  />
 <rect x="586" y="59" width="97" height="12" rx="0.00" shape-rendering="auto"  />
 <rect x="203" y="59" width="381" height="12" rx="0.00" shape-rendering="auto"  />
<ellipse cx="203.00" cy="65.00" rx="8.00" ry="8.00" shape-rendering="auto"  />
</g>
<g style="stroke-width:1;stroke-linecap:square;stroke-linejoin:miter; fill:#595959;fill-opacity:1.00; stroke:#000000; stroke-opacity:0.00;">
	<text x="220.00" y="69.00" textLength="72" style="font-family:Calibri; font-weight:0; font-style:normal; font-size:10px; fill:#595959;fill-opacity:1.00; stroke:#000000; stroke-opacity:0.00; stroke-width:0; white-space: pre;" xml:space="preserve" transform="rotate(-0.00 220.00 69.00)">www.tabone.com</text>
</g>
<g style="stroke-width:1;stroke-linecap:square;stroke-linejoin:miter; fill:#FFFFFF;fill-opacity:1.00; stroke:#000000; stroke-opacity:1.00;">
 <rect x="355" y="112" width="215" height="266" rx="0.00" shape-rendering="auto"  />
 <rect x="422" y="303" width="90" height="20" rx="0.00" shape-rendering="auto"  />
</g>
<g style="stroke-width:1;stroke-linecap:square;stroke-linejoin:miter; fill:#595959;fill-opacity:1.00; stroke:#000000; stroke-opacity:0.00;">
	<text x="441.00" y="316.00" textLength="52" style="font-family:Calibri; font-weight:0; font-style:normal; font-size:10px; fill:#595959;fill-opacity:1.00; stroke:#000000; stroke-opacity:0.00; stroke-width:0; white-space: pre;" xml:space="preserve" transform="rotate(-0.00 441.00 316.00)">Iniciar Sesión</text>
</g>
<g style="stroke-width:1;stroke-linecap:square;stroke-linejoin:miter; fill:#FFFFFF;fill-opacity:1.00; stroke:#000000; stroke-opacity:1.00;">
 <rect x="422" y="331" width="90" height="20" rx="0.00" shape-rendering="auto"  />
</g>
<g style="stroke-width:1;stroke-linecap:square;stroke-linejoin:miter; fill:#595959;fill-opacity:1.00; stroke:#000000; stroke-opacity:0.00;">
	<text x="445.00" y="344.00" textLength="44" style="font-family:Calibri; font-weight:0; font-style:normal; font-size:10px; fill:#595959;fill-opacity:1.00; stroke:#000000; stroke-opacity:0.00; stroke-width:0; white-space: pre;" xml:space="preserve" transform="rotate(-0.00 445.00 344.00)">Registrarse</text>
</g>
<g style="stroke-width:1;stroke-linecap:square;stroke-linejoin:miter; fill:#FFFFFF;fill-opacity:1.00; stroke:#D6D6D6; stroke-opacity:1.00;">
 <rect x="397" y="198" width="140" height="20" rx="0.00" shape-rendering="auto"  />
</g>
<g style="stroke-width:1;stroke-linecap:square;stroke-linejoin:miter; fill:#595959;fill-opacity:1.00; stroke:#000000; stroke-opacity:0.00;">
	<text x="400.00" y="212.00" textLength="76" style="font-family:Calibri; font-weight:0; font-style:normal; font-size:10px; fill:#595959;fill-opacity:1.00; stroke:#000000; stroke-opacity:0.00; stroke-width:0; white-space: pre;" xml:space="preserve" transform="rotate(-0.00 400.00 212.00)">Nombre de Usuario</text>
</g>
<g style="stroke-width:1;stroke-linecap:square;stroke-linejoin:miter; fill:#FFFFFF;fill-opacity:1.00; stroke:#D6D6D6; stroke-opacity:1.00;">
 <rect x="397" y="239" width="140" height="20" rx="0.00" shape-rendering="auto"  />
</g>
<g style="stroke-width:1;stroke-linecap:square;stroke-linejoin:miter; fill:#595959;fill-opacity:1.00; stroke:#000000; stroke-opacity:0.00;">
	<text x="400.00" y="253.00" textLength="45" style="font-family:Calibri; font-weight:0; font-style:normal; font-size:10px; fill:#595959;fill-opacity:1.00; stroke:#000000; stroke-opacity:0.00; stroke-width:0; white-space: pre;" xml:space="preserve" transform="rotate(-0.00 400.00 253.00)">Contraseña</text>
	<text x="397.00" y="191.00" textLength="76" style="font-family:Calibri; font-weight:0; font-style:normal; font-size:10px; fill:#595959;fill-opacity:1.00; stroke:#000000; stroke-opacity:0.00; stroke-width:0; white-space: pre;" xml:space="preserve" transform="rotate(-0.00 397.00 191.00)">Nombre de Usuario</text>
	<text x="399.00" y="236.00" textLength="45" style="font-family:Calibri; font-weight:0; font-style:normal; font-size:10px; fill:#595959;fill-opacity:1.00; stroke:#000000; stroke-opacity:0.00; stroke-width:0; white-space: pre;" xml:space="preserve" transform="rotate(-0.00 399.00 236.00)">Contraseña</text>
</g>
<g style="stroke-width:1;stroke-linecap:square;stroke-linejoin:miter; fill:#000000;fill-opacity:1.00; stroke:#000000; stroke-opacity:0.00;">
	<text x="397.00" y="155.00" textLength="137" style="font-family:Arial; font-weight:0; font-style:normal; font-size:23px; fill:#000000;fill-opacity:1.00; stroke:#000000; stroke-opacity:0.00; stroke-width:0; white-space: pre;" xml:space="preserve" transform="rotate(-0.00 397.00 155.00)">Iniciar Sesión</text>
</g>
<g style="stroke-width:1;stroke-linecap:square;stroke-linejoin:miter; fill:#FFFFFF;fill-opacity:1.00; stroke:#000000; stroke-opacity:1.00;">
 <rect x="814" y="222" width="122" height="20" rx="0.00" shape-rendering="auto"  />
</g>
<g style="stroke-width:1;stroke-linecap:square;stroke-linejoin:miter; fill:#595959;fill-opacity:1.00; stroke:#000000; stroke-opacity:0.00;">
	<text x="820.00" y="235.00" textLength="110" style="font-family:Calibri; font-weight:0; font-style:normal; font-size:10px; fill:#595959;fill-opacity:1.00; stroke:#000000; stroke-opacity:0.00; stroke-width:0; white-space: pre;" xml:space="preserve" transform="rotate(-0.00 820.00 235.00)">Iniciar Sesión Administrador</text>
</g>
<g style="stroke-width:1;stroke-linecap:square;stroke-linejoin:miter; fill:#FFFFFF;fill-opacity:1.00; stroke:#000000; stroke-opacity:1.00;">
 <rect x="814" y="250" width="122" height="20" rx="0.00" shape-rendering="auto"  />
</g>
<g style="stroke-width:1;stroke-linecap:square;stroke-linejoin:miter; fill:#595959;fill-opacity:1.00; stroke:#000000; stroke-opacity:0.00;">
	<text x="834.00" y="263.00" textLength="81" style="font-family:Calibri; font-weight:0; font-style:normal; font-size:10px; fill:#595959;fill-opacity:1.00; stroke:#000000; stroke-opacity:0.00; stroke-width:0; white-space: pre;" xml:space="preserve" transform="rotate(-0.00 834.00 263.00)">Iniciar Sesión Cliente</text>
</g>
<g style="stroke-width:1;stroke-linecap:square;stroke-linejoin:miter; fill:#FFFFFF;fill-opacity:1.00; stroke:#658A99; stroke-opacity:1.00;">
  <path d="M 762 146 L 762 204 L 875 204 L 875 158 L 863 146 Z" shape-rendering="auto"/>
  <path d="M 863 146 L 863 158 L 875 158 Z" shape-rendering="auto"/>
</g>
<g style="stroke-width:1;stroke-linecap:square;stroke-linejoin:miter; fill:#3C3C3C;fill-opacity:1.00; stroke:#000000; stroke-opacity:0.00;">
	<text x="767.00" y="170.00" textLength="85" style="font-family:Calibri; font-weight:0; font-style:normal; font-size:10px; fill:#3C3C3C;fill-opacity:1.00; stroke:#000000; stroke-opacity:0.00; stroke-width:0; white-space: pre;" xml:space="preserve" transform="rotate(-0.00 767.00 170.00)">Botón &quot;Iniciar Sesión&quot;</text>
	<text x="767.00" y="183.00" textLength="56" style="font-family:Calibri; font-weight:0; font-style:normal; font-size:10px; fill:#3C3C3C;fill-opacity:1.00; stroke:#000000; stroke-opacity:0.00; stroke-width:0; white-space: pre;" xml:space="preserve" transform="rotate(-0.00 767.00 183.00)">redirige según</text>
	<text x="767.00" y="196.00" textLength="92" style="font-family:Calibri; font-weight:0; font-style:normal; font-size:10px; fill:#3C3C3C;fill-opacity:1.00; stroke:#000000; stroke-opacity:0.00; stroke-width:0; white-space: pre;" xml:space="preserve" transform="rotate(-0.00 767.00 196.00)">Administrador o Cliente</text>
</g>
<g style="stroke-width:1;stroke-linecap:square;stroke-linejoin:miter; fill:#FFFFFF;fill-opacity:1.00; stroke:#000000; stroke-opacity:0.00;">
  <path d="M 37 47 L 147 47 L 147 93 L 37 93 Z" shape-rendering="auto"/>
</g>
<g style="stroke-width:1;stroke-linecap:round;stroke-linejoin:bevel; fill:#000000;fill-opacity:0.00; stroke:#9A8484; stroke-opacity:1.00;">
  <path d="M 47 47 L 50 47 L 50 93 L 47 93 Z" shape-rendering="auto"/>
  <path d="M 37 47 L 147 47 L 147 93 L 37 93 Z" shape-rendering="auto"/>
</g>
<g style="stroke-width:1;stroke-linecap:round;stroke-linejoin:bevel; fill:#595959;fill-opacity:1.00; stroke:#000000; stroke-opacity:0.00;">
	<text x="54.00" y="62.00" textLength="45" style="font-family:Calibri; font-weight:700; font-style:normal; font-size:10px; fill:#595959;fill-opacity:1.00; stroke:#000000; stroke-opacity:0.00; stroke-width:0; white-space: pre;" xml:space="preserve" transform="rotate(-0.00 54.00 62.00)">RF-001-1-1</text>
	<text x="54.00" y="75.00" textLength="57" style="font-family:Calibri; font-weight:700; font-style:normal; font-size:10px; fill:#595959;fill-opacity:1.00; stroke:#000000; stroke-opacity:0.00; stroke-width:0; white-space: pre;" xml:space="preserve" transform="rotate(-0.00 54.00 75.00)">Formulario de</text>
	<text x="54.00" y="88.00" textLength="62" style="font-family:Calibri; font-weight:700; font-style:normal; font-size:10px; fill:#595959;fill-opacity:1.00; stroke:#000000; stroke-opacity:0.00; stroke-width:0; white-space: pre;" xml:space="preserve" transform="rotate(-0.00 54.00 88.00)">acceso al portal</text>
</g>
<g style="stroke-width:1;stroke-linecap:round;stroke-linejoin:bevel; fill:#FFFFFF;fill-opacity:1.00; stroke:#9A8484; stroke-opacity:1.00;">
  <path d="M 117 78 C 117 76 119 75 122 75 125 75 127 76 127 78 127 80 125 81 122 81 119 81 117 80 117 78 Z" shape-rendering="auto"/>
  <path d="M 131 78 C 131 76 133 75 136 75 139 75 141 76 141 78 141 80 139 81 136 81 133 81 131 80 131 78 Z" shape-rendering="auto"/>
</g>
<g style="stroke-width:1;stroke-linecap:round;stroke-linejoin:bevel; fill:#000000;fill-opacity:0.00; stroke:#9A8484; stroke-opacity:1.00;">
  <path d="M 127 78 L 131 78" shape-rendering="auto"/>
</g>
<g style="stroke-width:1;stroke-linecap:round;stroke-linejoin:bevel; fill:#595959;fill-opacity:1.00; stroke:#000000; stroke-opacity:0.00;">
	<text x="80.00" y="108.00" textLength="24" style="font-family:Calibri; font-weight:0; font-style:italic; font-size:10px; fill:#595959;fill-opacity:1.00; stroke:#000000; stroke-opacity:0.00; stroke-width:0; white-space: pre;" xml:space="preserve" transform="rotate(-0.00 80.00 108.00)">(from </text>
	<text x="34.00" y="121.00" textLength="117" style="font-family:Calibri; font-weight:0; font-style:italic; font-size:10px; fill:#595959;fill-opacity:1.00; stroke:#000000; stroke-opacity:0.00; stroke-width:0; white-space: pre;" xml:space="preserve" transform="rotate(-0.00 34.00 121.00)">Requerimientos_Funcionales)</text>
</g>
<g style="stroke-width:1;stroke-linecap:round;stroke-linejoin:bevel; fill:#FFFFFF;fill-opacity:1.00; stroke:#000000; stroke-opacity:0.00;">
  <path d="M 37 164 L 147 164 L 147 210 L 37 210 Z" shape-rendering="auto"/>
</g>
<g style="stroke-width:1;stroke-linecap:round;stroke-linejoin:bevel; fill:#000000;fill-opacity:0.00; stroke:#9A8484; stroke-opacity:1.00;">
  <path d="M 47 164 L 50 164 L 50 210 L 47 210 Z" shape-rendering="auto"/>
  <path d="M 37 164 L 147 164 L 147 210 L 37 210 Z" shape-rendering="auto"/>
</g>
<g style="stroke-width:1;stroke-linecap:round;stroke-linejoin:bevel; fill:#595959;fill-opacity:1.00; stroke:#000000; stroke-opacity:0.00;">
	<text x="54.00" y="179.00" textLength="45" style="font-family:Calibri; font-weight:700; font-style:normal; font-size:10px; fill:#595959;fill-opacity:1.00; stroke:#000000; stroke-opacity:0.00; stroke-width:0; white-space: pre;" xml:space="preserve" transform="rotate(-0.00 54.00 179.00)">RF-001-1-3</text>
	<text x="54.00" y="192.00" textLength="61" style="font-family:Calibri; font-weight:700; font-style:normal; font-size:10px; fill:#595959;fill-opacity:1.00; stroke:#000000; stroke-opacity:0.00; stroke-width:0; white-space: pre;" xml:space="preserve" transform="rotate(-0.00 54.00 192.00)">Redirección del</text>
	<text x="54.00" y="205.00" textLength="68" style="font-family:Calibri; font-weight:700; font-style:normal; font-size:10px; fill:#595959;fill-opacity:1.00; stroke:#000000; stroke-opacity:0.00; stroke-width:0; white-space: pre;" xml:space="preserve" transform="rotate(-0.00 54.00 205.00)">acceso según Rol</text>
</g>
<g style="stroke-width:1;stroke-linecap:round;stroke-linejoin:bevel; fill:#FFFFFF;fill-opacity:1.00; stroke:#9A8484; stroke-opacity:1.00;">
  <path d="M 117 195 C 117 193 119 192 122 192 125 192 127 193 127 195 127 197 125 198 122 198 119 198 117 197 117 195 Z" shape-rendering="auto"/>
  <path d="M 131 195 C 131 193 133 192 136 192 139 192 141 193 141 195 141 197 139 198 136 198 133 198 131 197 131 195 Z" shape-rendering="auto"/>
</g>
<g style="stroke-width:1;stroke-linecap:round;stroke-linejoin:bevel; fill:#000000;fill-opacity:0.00; stroke:#9A8484; stroke-opacity:1.00;">
  <path d="M 127 195 L 131 195" shape-rendering="auto"/>
</g>
<g style="stroke-width:1;stroke-linecap:round;stroke-linejoin:bevel; fill:#595959;fill-opacity:1.00; stroke:#000000; stroke-opacity:0.00;">
	<text x="80.00" y="225.00" textLength="24" style="font-family:Calibri; font-weight:0; font-style:italic; font-size:10px; fill:#595959;fill-opacity:1.00; stroke:#000000; stroke-opacity:0.00; stroke-width:0; white-space: pre;" xml:space="preserve" transform="rotate(-0.00 80.00 225.00)">(from </text>
	<text x="34.00" y="238.00" textLength="117" style="font-family:Calibri; font-weight:0; font-style:italic; font-size:10px; fill:#595959;fill-opacity:1.00; stroke:#000000; stroke-opacity:0.00; stroke-width:0; white-space: pre;" xml:space="preserve" transform="rotate(-0.00 34.00 238.00)">Requerimientos_Funcionales)</text>
</g>
<g style="stroke-width:1;stroke-linecap:round;stroke-linejoin:bevel; fill:#000000;fill-opacity:0.00; stroke:#658A99; stroke-opacity:1.00;" stroke-dasharray="3,3">
  <path d="M 492 303 L 762 197 M 492 303" shape-rendering="auto"/>
  <path d="M 778 229 L 778 204 M 814 229 L 778 229 M 814 229" shape-rendering="auto"/>
  <path d="M 771 258 L 771 204 M 814 258 L 771 258 M 814 258" shape-rendering="auto"/>
</g>
<g style="stroke-width:1;stroke-linecap:square;stroke-linejoin:round; fill:#000000;fill-opacity:0.00; stroke:#69738C; stroke-opacity:1.00;" stroke-dasharray="6,3">
  <path d="M 355 194 L 140 93 M 355 194" shape-rendering="auto"/>
</g>
<g style="stroke-width:1;stroke-linecap:round;stroke-linejoin:bevel; fill:#000000;fill-opacity:0.00; stroke:#69738C; stroke-opacity:1.00;">
  <path d="M 339 192 L 355 194 L 344 183" shape-rendering="auto"/>
</g>
<g style="stroke-width:1;stroke-linecap:square;stroke-linejoin:round; fill:#000000;fill-opacity:0.00; stroke:#69738C; stroke-opacity:1.00;" stroke-dasharray="6,3">
  <path d="M 437 303 L 147 205 M 437 303" shape-rendering="auto"/>
</g>
<g style="stroke-width:1;stroke-linecap:round;stroke-linejoin:bevel; fill:#000000;fill-opacity:0.00; stroke:#69738C; stroke-opacity:1.00;">
  <path d="M 421 303 L 437 303 L 424 293" shape-rendering="auto"/>
</g>
<g style="stroke-width:1;stroke-linecap:round;stroke-linejoin:bevel; fill:#595959;fill-opacity:1.00; stroke:#000000; stroke-opacity:0.00;">
	<text x="232.00" y="156.00" textLength="30" style="font-family:Calibri; font-weight:0; font-style:normal; font-size:10px; fill:#595959;fill-opacity:1.00; stroke:#000000; stroke-opacity:0.00; stroke-width:0; white-space: pre;" xml:space="preserve" transform="rotate(-0.00 232.00 156.00)">«trace»</text>
	<text x="277.00" y="267.00" textLength="30" style="font-family:Calibri; font-weight:0; font-style:normal; font-size:10px; fill:#595959;fill-opacity:1.00; stroke:#000000; stroke-opacity:0.00; stroke-width:0; white-space: pre;" xml:space="preserve" transform="rotate(-0.00 277.00 267.00)">«trace»</text>
</g>
</svg>
